<?xml version="1.0" encoding="UTF-8" standalone="no"?>
<svg width="32px" height="32px" viewBox="0 0 32 32" version="1.1" xmlns="http://www.w3.org/2000/svg" xmlns:xlink="http://www.w3.org/1999/xlink" xmlns:sketch="http://www.bohemiancoding.com/sketch/ns">
    <g id="mobile" sketch:type="MSLayerGroup" transform="translate(6.000000, 0.000000)" fill="#FFFFFF">
        <path d="M17,0 L3,0 C1.35,0 0,1.35 0,3 L0,29 C0,30.65 1.35,32 3,32 L17,32 C18.65,32 20,30.65 20,29 L20,3 C20,1.35 18.65,0 17,0 L17,0 Z M6,1.5 L14,1.5 L14,2.5 L6,2.5 L6,1.5 L6,1.5 Z M10,30 C8.895,30 8,29.105 8,28 C8,26.895 8.895,26 10,26 C11.105,26 12,26.895 12,28 C12,29.105 11.105,30 10,30 L10,30 Z M18,24 L2,24 L2,4 L18,4 L18,24 L18,24 Z" id="Shape" sketch:type="MSShapeGroup"></path>
        <path d="M15.2819847,10.4830384 C14.9785527,13.3700014 12.612239,15.4878238 9.99708547,15.2129601 C8.68931137,15.0755075 7.56694054,14.3660187 6.80966816,13.3297711 L8.78489926,11.5619628 L4.04944688,11.0642467 L3.5,16.2918846 L5.56419357,14.444456 C6.57402161,15.8261332 8.07050079,16.7722636 9.81393651,16.955506 C13.3012026,17.3220325 16.455847,14.4986634 16.8604689,10.6489437 C15.2819847,10.4830382 16.8604689,10.6489436 15.2819847,10.4830384 L15.2819847,10.4830384 Z" id="Shape" sketch:type="MSShapeGroup"></path>
    </g>
</svg>